<?xml version="1.0" standalone="no"?>
<!DOCTYPE svg PUBLIC "-//W3C//DTD SVG 20010904//EN"
 "http://www.w3.org/TR/2001/REC-SVG-20010904/DTD/svg10.dtd">
<svg version="1.0" xmlns="http://www.w3.org/2000/svg"
 width="20.000000pt" height="20.000000pt" viewBox="0 0 20.000000 20.000000"
 preserveAspectRatio="xMidYMid meet">

<g transform="translate(0.000000,20.000000) scale(0.100000,-0.100000)"
fill="#000000" stroke="none">
<path d="M51 186 c-87 -48 -50 -186 49 -186 51 0 100 49 100 99 0 75 -83 124
-149 87z m88 -11 c33 -17 56 -64 46 -96 l-7 -21 -24 25 c-13 14 -23 36 -21 48
3 28 -27 48 -50 33 -10 -7 -17 -22 -16 -33 2 -12 -8 -34 -21 -48 l-24 -25 -7
21 c-9 31 13 79 44 96 33 18 46 18 80 0z m-19 -35 c0 -13 -7 -20 -20 -20 -13
0 -20 7 -20 20 0 13 7 20 20 20 13 0 20 -7 20 -20z m11 -50 c12 -7 19 -21 19
-39 0 -22 -6 -30 -25 -35 -31 -8 -75 2 -76 18 -3 25 3 42 19 54 19 15 37 15
63 2z"/>
</g>
</svg>
